<?xml version="1.0" encoding="UTF-8" standalone="no"?>
<svg
   height="31.968462"
   width="32"
   version="1.1"
   id="svg4"
   xmlns="http://www.w3.org/2000/svg"
   xmlns:svg="http://www.w3.org/2000/svg">
  <defs
     id="defs8" />
  <path
     style="fill:#ffffff;stroke-width:0.0337721;stroke-linecap:round;paint-order:stroke fill markers"
     d="M 15.017415,31.954855 C 11.355135,31.6911 8.3415935,30.481659 5.7019585,28.216233 5.1032055,27.702362 3.9191715,26.49311 3.4710065,25.937768 0.57876558,22.35385 -0.54677152,17.852627 0.24816518,13.049049 0.65449188,10.593734 1.7986255,8.0697182 3.4247495,6.0413512 4.8064835,4.3178257 6.7828325,2.6851964 8.6705975,1.7078424 10.957572,0.52380633 13.206292,2.6654052e-8 16.002431,2.6654052e-8 c 3.018943,0 5.520925,0.631138803345948 7.8898,1.990246173345948 2.89486,1.6608838 5.410657,4.40601 6.747089,7.362125 1.598278,3.5352988 1.802868,8.0295598 0.537803,11.8139138 -0.843989,2.524741 -2.441829,4.913326 -4.534402,6.778418 -2.511912,2.238842 -5.21859,3.482753 -8.494299,3.90373 -0.664128,0.08534 -2.538827,0.149071 -3.131007,0.106422 z M 17.606604,19.747171 V 14.090355 H 16.14315 14.679694 v 5.656816 5.65682 h 1.463456 1.463454 z m -0.925051,-9.252999 c 0.558045,-0.253463 0.873276,-0.7203498 0.888138,-1.3154138 0.01294,-0.5181 -0.103032,-0.845229 -0.424236,-1.196676 -0.32816,-0.35906 -0.657581,-0.504442 -1.143024,-0.504442 -0.485443,0 -0.814862,0.145382 -1.143023,0.504442 -0.321201,0.351447 -0.437171,0.678576 -0.424234,1.196676 0.02156,0.8635378 0.635295,1.4193458 1.567257,1.4193458 0.317675,0 0.51769,-0.0306 0.679122,-0.103932 z"
     id="path321" />
</svg>
