<?xml version="1.0" encoding="UTF-8" standalone="no"?>
<!-- Created with Inkscape (http://www.inkscape.org/) -->

<svg
   version="1.1"
   id="svg9"
   width="32"
   height="31.999998"
   viewBox="0 0 32 31.999997"
   xml:space="preserve"
   xmlns="http://www.w3.org/2000/svg"
   xmlns:svg="http://www.w3.org/2000/svg"><defs
     id="defs13" /><circle
     style="fill:#30e6a6;fill-opacity:1;stroke-width:0.299997;stroke-linecap:round;paint-order:stroke fill markers"
     id="path1148-3"
     cx="16"
     cy="16"
     r="16" /><path
     style="fill:#ffffff;fill-opacity:1;stroke-width:0.0383266"
     d="m 16.270545,23.319703 c 0,-0.05292 -1.13081,-1.100172 -2.60532,-2.411451 -3.19816,-2.843206 -4.4843803,-4.366387 -5.0823703,-6.018372 -0.20751,-0.575292 -0.25903,-0.904787 -0.23536,-1.525089 0.0557,-1.50335 0.78266,-2.838722 1.9615103,-3.6066423 0.66567,-0.434498 1.27425,-0.626819 2.07153,-0.656343 1.33134,-0.04874 2.47385,0.382414 3.55244,1.3426273 l 0.35929,0.320025 0.36209,-0.321139 c 0.61693,-0.5468833 1.17398,-0.8798593 1.83896,-1.0996153 1.38287,-0.457058 2.74318,-0.298856 3.85171,0.447589 0.27853,0.187726 0.73531,0.6206923 0.95673,0.9077123 0.41918,0.543123 0.75202,1.312965 0.88293,2.050873 0.0696,0.406089 0.0836,1.184148 0.0279,1.456001 -0.35373,1.551466 -1.42103,3.094227 -3.52348,5.093114 -0.33005,0.313758 -1.22133,1.124264 -1.98003,1.801093 -0.75898,0.676814 -1.61683,1.461724 -1.90664,1.744343 -0.28966,0.282702 -0.5278,0.49647 -0.5278,0.475163 z"
     id="path12657-5" /></svg>
