<?xml version="1.0" encoding="UTF-8" standalone="no"?>
<!-- Created with Inkscape (http://www.inkscape.org/) -->

<svg
   version="1.1"
   id="svg9"
   width="24"
   height="24"
   viewBox="0 0 32 28.636176"
   xml:space="preserve"
   xmlns:xlink="http://www.w3.org/1999/xlink"
   xmlns="http://www.w3.org/2000/svg"
   xmlns:svg="http://www.w3.org/2000/svg"><defs
     id="defs13"><linearGradient
       id="linearGradient12663"><stop
         style="stop-color:#36e99d;stop-opacity:1;"
         offset="0"
         id="stop12659" /><stop
         style="stop-color:#21c2bd;stop-opacity:1;"
         offset="1"
         id="stop12661" /></linearGradient><linearGradient
       xlink:href="#linearGradient12663"
       id="linearGradient2863"
       gradientUnits="userSpaceOnUse"
       gradientTransform="matrix(0.4677804,0,0,0.4677804,-4.7139495,-33.268851)"
       x1="13.044313"
       y1="142.27975"
       x2="62.001358"
       y2="62.167755" /></defs><path
     style="fill:url(#linearGradient2863);fill-opacity:1;stroke-width:0.0771089"
     d="m 15.951201,28.633228 c 0,-0.108566 -2.27387,-2.213299 -5.24147,-4.85158 C 4.2755005,18.061419 1.6876505,14.996969 0.48455053,11.673329 c -0.41897,-1.15742 -0.52133,-1.8201898 -0.47388,-3.0682998 0.11503,-3.02458 1.57611997,-5.71121 3.94628997,-7.25617 1.34137,-0.87434996 2.56222,-1.26118996 4.1677,-1.32058996 2.6794805,-0.0991 4.9773505,0.76931 7.1471305,2.70113996 l 0.72314,0.64384 0.72899,-0.64591 c 1.24191,-1.1004 2.36203,-1.77018996 3.69958,-2.21220996 2.78227,-0.91947 5.51924,-0.60137 7.74942,0.90063996 0.56072,0.37765 1.47928,1.24871 1.92591,1.82635 0.84506,1.09289 1.5115,2.6414 1.77581,4.12614 0.14554,0.81712 0.1694,2.38255 0.0449,2.9292998 -0.71137,3.12137 -2.85853,6.22522 -7.08849,10.246787 -0.66409,0.631381 -2.4566,2.261994 -3.98335,3.623585 -1.52675,1.361593 -3.25303,2.940838 -3.83617,3.509434 -0.58312,0.568598 -1.06023,0.99874 -1.06023,0.955863 z"
     id="path12657-9" /></svg>
