<?xml version="1.0" encoding="UTF-8" standalone="no"?>
<!-- Created with Inkscape (http://www.inkscape.org/) -->

<svg
   version="1.1"
   id="svg9"
   width="48"
   height="48"
   viewBox="0 0 32 26.913482"
   xml:space="preserve"
   xmlns:xlink="http://www.w3.org/1999/xlink"
   xmlns="http://www.w3.org/2000/svg"
   xmlns:svg="http://www.w3.org/2000/svg"><defs
     id="defs13"><linearGradient
       id="linearGradient22737"><stop
         style="stop-color:#f66460;stop-opacity:1;"
         offset="0"
         id="stop22733" /><stop
         style="stop-color:#e52269;stop-opacity:1;"
         offset="1"
         id="stop22735" /></linearGradient><linearGradient
       xlink:href="#linearGradient22737"
       id="linearGradient22739"
       x1="44.584515"
       y1="102.82316"
       x2="67.624779"
       y2="102.82316"
       gradientUnits="userSpaceOnUse"
       gradientTransform="matrix(0.91573361,0,0,0.81699511,-35.620998,-70.073704)" /></defs><path
     style="fill:url(#linearGradient22739);fill-opacity:1;stroke:none;stroke-width:1.14976;stroke-linecap:round;stroke-linejoin:miter;stroke-dasharray:none;stroke-opacity:1;paint-order:stroke fill markers"
     d="m 22.66878,24.207416 c -0.76439,-0.24895 -0.871668,-0.34434 -4.142669,-3.68382 -2.654281,-2.70984 -2.820661,-2.85276 -3.057094,-2.62612 -0.137525,0.13183 -1.488699,1.49855 -3.002599,3.03718 -2.8776105,2.92459 -3.4237724,3.33013 -4.4849245,3.33013 -0.7975673,0 -1.819819,-0.48347 -2.2507999,-1.0645 -0.4847252,-0.65349 -0.6191916,-1.5604 -0.3246184,-2.18939 0.1249793,-0.26687 1.660518,-1.94561 3.4123073,-3.73052 1.7517805,-1.78492 3.1850585,-3.2773 3.1850585,-3.31642 0,-0.0391 -1.462518,-1.55635 -3.250039,-3.37164 C 6.96589,8.7770165 5.4375307,7.1372665 5.3570468,6.9484265 c -0.2651598,-0.62225 -0.171874,-1.54263 0.2162597,-2.13352 0.6848039,-1.04252 2.3652757,-1.50526 3.5244205,-0.97048 0.257138,0.11864 1.70549,1.47404 3.218556,3.01202 1.513058,1.53797 2.897528,2.9346497 3.0766,3.1037397 l 0.32558,0.3074298 3.05333,-3.1014295 c 3.193356,-3.24366 3.717357,-3.64105 4.801063,-3.64105 1.964771,0 3.362492,1.98114 2.443626,3.46361 -0.193677,0.31247 -1.714061,1.94875 -3.378626,3.6361695 -1.664557,1.68741 -3.077735,3.14332 -3.14039,3.23535 -0.07381,0.10837 0.99761,1.29455 3.041033,3.36683 1.735214,1.75973 3.267264,3.39345 3.404551,3.63051 1.055218,1.82204 -1.122937,4.05044 -3.27427,3.34981 z"
     id="path21502" /></svg>
