<?xml version="1.0" encoding="UTF-8" standalone="no"?>
<!-- Created with Inkscape (http://www.inkscape.org/) -->

<svg
   version="1.1"
   id="svg9"
   width="32"
   height="32"
   viewBox="0 0 32 31.999999"
   xml:space="preserve"
   xmlns="http://www.w3.org/2000/svg"
   xmlns:svg="http://www.w3.org/2000/svg"><defs
     id="defs13" /><circle
     style="fill:#e52269;fill-opacity:1;stroke-width:0.299998;stroke-linecap:round;paint-order:stroke fill markers"
     id="path1148"
     cx="16"
     cy="16.000002"
     r="16" /><a
     id="a2598"
     transform="matrix(14.000274,0,0,14.000274,-1319.548,275.37665)"><path
       style="fill:#ffffff;fill-opacity:1;stroke:none;stroke-width:0.0550369;stroke-linecap:round;stroke-linejoin:miter;stroke-dasharray:none;stroke-opacity:1;paint-order:stroke fill markers"
       d="m 95.74159,-18.031016 c -0.03659,-0.01192 -0.04172,-0.01649 -0.198302,-0.176337 -0.127054,-0.129715 -0.13502,-0.136556 -0.146337,-0.125707 -0.0066,0.0063 -0.07125,0.07174 -0.143729,0.145384 -0.137746,0.139994 -0.163889,0.159407 -0.214685,0.159407 -0.03818,0 -0.08711,-0.02314 -0.107741,-0.05095 -0.02321,-0.03127 -0.02964,-0.07469 -0.01554,-0.104802 0.006,-0.01277 0.07949,-0.09313 0.16334,-0.178573 0.08385,-0.08544 0.152463,-0.156877 0.152463,-0.15875 0,-0.0018 -0.07001,-0.0745 -0.155573,-0.161393 -0.08556,-0.08689 -0.158724,-0.165387 -0.162577,-0.174426 -0.0127,-0.02979 -0.0082,-0.07384 0.01035,-0.102128 0.03278,-0.04991 0.113221,-0.07206 0.168707,-0.04646 0.0123,0.0057 0.08164,0.07055 0.154066,0.144179 0.07243,0.07361 0.1387,0.140475 0.147271,0.148569 l 0.01559,0.01471 0.146156,-0.14846 c 0.15286,-0.155267 0.177942,-0.17429 0.229818,-0.17429 0.09405,0 0.160955,0.09483 0.116971,0.165796 -0.0093,0.01496 -0.08205,0.09328 -0.161728,0.174057 -0.07967,0.08077 -0.147325,0.150464 -0.150324,0.15487 -0.0035,0.0052 0.04775,0.06197 0.145568,0.161163 0.08307,0.08423 0.156397,0.162439 0.162969,0.173786 0.05052,0.08722 -0.05375,0.193887 -0.156732,0.160349 z"
       id="path21502" /></a></svg>
