<?xml version="1.0" encoding="UTF-8" standalone="no"?>
<!-- Created with Inkscape (http://www.inkscape.org/) -->

<svg
   version="1.1"
   id="svg9"
   width="32"
   height="32"
   viewBox="0 0 32 31.999999"
   xml:space="preserve"
   sodipodi:docname="search.svg"
   inkscape:export-filename="nope.svg"
   inkscape:export-xdpi="96"
   inkscape:export-ydpi="96"
   inkscape:version="1.2.1 (9c6d41e410, 2022-07-14)"
   xmlns:inkscape="http://www.inkscape.org/namespaces/inkscape"
   xmlns:sodipodi="http://sodipodi.sourceforge.net/DTD/sodipodi-0.dtd"
   xmlns="http://www.w3.org/2000/svg"
   xmlns:svg="http://www.w3.org/2000/svg"><sodipodi:namedview
     id="namedview56"
     pagecolor="#ffffff"
     bordercolor="#000000"
     borderopacity="0.25"
     inkscape:showpageshadow="2"
     inkscape:pageopacity="0.0"
     inkscape:pagecheckerboard="0"
     inkscape:deskcolor="#d1d1d1"
     showgrid="false"
     showguides="true"
     inkscape:zoom="11.313709"
     inkscape:cx="80.698561"
     inkscape:cy="4.0216698"
     inkscape:window-width="1920"
     inkscape:window-height="991"
     inkscape:window-x="-9"
     inkscape:window-y="-9"
     inkscape:window-maximized="1"
     inkscape:current-layer="svg9"><sodipodi:guide
       position="-82.676468,14.514112"
       orientation="0,-1"
       id="guide10413"
       inkscape:locked="false" /><sodipodi:guide
       position="-83.176468,13.924262"
       orientation="0,-1"
       id="guide10417"
       inkscape:locked="false" /><sodipodi:guide
       position="-84.306458,12.681152"
       orientation="1,0"
       id="guide10419"
       inkscape:locked="false" /><sodipodi:guide
       position="-83.660128,12.653532"
       orientation="1,0"
       id="guide10421"
       inkscape:locked="false" /></sodipodi:namedview><defs
     id="defs13" /><circle
     style="fill:#f0d371;fill-opacity:1;stroke-width:0.299999;stroke-linecap:round;paint-order:stroke fill markers"
     id="path1148-7"
     cx="16"
     cy="16.000004"
     r="16"
     inkscape:export-filename=".\nope-active.svg"
     inkscape:export-xdpi="96"
     inkscape:export-ydpi="96" /><path
     style="fill:#ffffff;fill-opacity:1;stroke:none;stroke-width:0.136412;stroke-linecap:round;stroke-linejoin:miter;stroke-dasharray:none;stroke-opacity:1;paint-order:stroke fill markers"
     d="m 15.27379,21.578667 c -2.38449,-0.10136 -4.51338,-3.0712 -4.39547,-4.46456 0.54397,-0.45612 0.69263,-0.52538 1.07779,-0.51524 0.86663,0.0132 1.15213,2.68738 3.39319,3.27172 1.06428,0.003 1.93935,-0.34293 2.5546,-0.9494 0.61999,-0.62505 0.92744,-1.38356 0.93082,-2.29208 1.7e-4,-0.53552 -0.10136,-0.9663 -0.32097,-1.41735 -0.13515,-0.29901 -0.29225,-0.50342 -0.54565,-0.76358 -0.51187,-0.53045 -1.09638,-0.85818 -1.78765,-0.9967 -0.21455,-0.0507 -0.61998,-0.0845 -0.63857,-0.0845 0.81933,0.89028 1.46296,1.05583 0.63857,1.87752 -0.81088,0.65208 -0.85987,0.27367 -2.2583,-1.0761 -1.39707,-1.34977 -1.47309,-1.901 0,-3.3322 1.4731,-1.4308597 1.74914,-1.5828997 2.26658,-1.0676597 0.67742,0.5405897 0.6808,0.5439697 -0.0507,1.2365897 l -0.63688,0.63688 0.21455,0.006 c 0.46118,0.013 0.78384,0.0845 1.16056,0.17062 0.83622,0.21961 1.62683,0.69094 2.2735,1.35822 0.77878,0.80412 1.21632,1.71281 1.35316,2.81256 0.0507,0.26692 0.0507,1.03556 -0.006,1.30417 -0.15203,1.08623 -0.58281,1.96942 -1.33794,2.75512 -0.75344,0.78216 -1.6319,1.25686 -2.65597,1.43931 -0.35982,0.0676 -0.86155,0.10136 -1.23659,0.0845 z"
     id="path27384-6" /></svg>
