<?xml version="1.0" encoding="UTF-8" standalone="no"?>
<!-- Created with Inkscape (http://www.inkscape.org/) -->

<svg
   version="1.1"
   id="svg9"
   width="32"
   height="32"
   viewBox="0 0 32 31.999999"
   xml:space="preserve"
   xmlns="http://www.w3.org/2000/svg"
   xmlns:svg="http://www.w3.org/2000/svg"><defs
     id="defs13" /><circle
     style="fill:#2f8bca;fill-opacity:1;stroke-width:0.299997;stroke-linecap:round;paint-order:stroke fill markers"
     id="path1148-1"
     cx="16"
     cy="16.000004"
     r="16" /><path
     style="fill:#ffffff;fill-opacity:1;stroke:none;stroke-width:28.3411;stroke-linecap:round;stroke-linejoin:miter;stroke-dasharray:none;stroke-opacity:1;paint-order:stroke fill markers"
     id="path52668-9"
     d="m 19.704237,21.562504 c -0.34689,0.26455 -3.3741,-2.10796 -3.80421,-2.10883 -0.43098,-5.3e-4 -3.46345,2.36041 -3.81121,2.09447 -0.34864,-0.2663 0.86722,-4.02005 0.73407,-4.44963 -0.14016,-0.43099 -3.2085402,-2.72886 -3.0750402,-3.15809 0.14015,-0.42923 3.9098502,-0.37667 4.2583102,-0.64121 0.34689,-0.26455 1.48216,-4.0470296 1.91069,-4.0461596 0.42923,5.3e-4 1.54873,3.7872196 1.89685,4.0529896 0.34864,0.2663 4.12376,0.2295 4.25603,0.65698 0.14016,0.43099 -2.95205,2.71712 -3.08572,3.14635 -0.14016,0.42923 1.06519,4.18771 0.72005,4.45261 z" /></svg>
