<?xml version="1.0" encoding="UTF-8" standalone="no"?>
<!-- Created with Inkscape (http://www.inkscape.org/) -->

<svg
   version="1.1"
   id="svg9"
   width="27.791565"
   height="31.943977"
   viewBox="0 0 27.791565 31.943977"
   xml:space="preserve"
   xmlns="http://www.w3.org/2000/svg"
   xmlns:svg="http://www.w3.org/2000/svg"><defs
     id="defs13" /><path
     d="m 8.337462,12.894881 c -0.0477,0 -0.0794,0 -0.11117,-0.0318 -1.0799,-1.42928 -1.34988,-3.8908101 -1.4134,-4.8277901 -0.0159,-0.18263 -0.22233,-0.27791 -0.38114,-0.19057 C 3.096762,9.7107309 -8.0175782e-6,14.141501 -8.0175782e-6,18.413461 c 0,7.36079 5.1057100175782,13.53052 13.8957800175782,13.53052 8.23424,0 13.89578,-6.35236 13.89578,-13.52258 0,-9.3776701 -6.6938,-15.5871011 -12.65707,-18.39802112 -0.15881,-0.0794 -0.3335,0.0556 -0.31762,0.222341 0.77817,5.05805902 -0.28585,10.54491012 -6.48734,12.66501012 z"
     fill="url(#a)"
     id="path13526-2"
     style="fill:#757988;fill-opacity:1;stroke-width:0.794045" /></svg>
